<svg height="51" viewBox="0 0 280 51" width="280" xmlns="http://www.w3.org/2000/svg"><g fill="none" fill-rule="evenodd"><g fill="#facf45"><path d="m279.480428 10.2042781c0 1.9225668-1.509305 3.4318716-3.473797 3.4318716-1.942032 0-3.493262-1.5093048-3.493262-3.4318716 0-1.88213906 1.55123-3.39144388 3.493262-3.39144388 1.964492 0 3.473797 1.50930482 3.473797 3.39144388zm-6.100107 0c0 1.5093048 1.117005 2.7086631 2.647273 2.7086631 1.489839 0 2.585882-1.1993583 2.585882-2.6877006 0-1.50930477-1.094546-2.72962563-2.605348-2.72962563-1.510802-.00149732-2.627807 1.22032086-2.627807 2.70866313zm2.08877 1.7773262h-.784599v-3.38994655c.309947-.0628877.742674-.1033155 1.301176-.1033155.642353 0 .92984.1033155 1.178396.24855615.187166.14524064.330909.41326203.330909.74417112 0 .3713369-.288984.66032088-.702246.78459888v.0404279c.330909.124278.518075.3728342.619893.8280213.103316.5180749.164706.7232086.248556.8474867h-.847486c-.101818-.1242781-.164706-.4342246-.269519-.8280214-.06139-.3713369-.269519-.5360428-.702246-.5360428h-.372834zm.020962-1.9225669h.372835c.432727 0 .784599-.14524061.784599-.49711227 0-.30994652-.226097-.51657754-.723209-.51657754-.208128 0-.350374.02096257-.434225.04042781z"/><path d="m253.033163 34.0566845 4.453048-2.4136898c.327915 1.170909.938824 2.0513369 1.832728 2.6592513.889411.6079144 2.030374.9223529 3.436363.9223529 1.203851 0 2.142674-.2814973 2.82246-.8370053.685776-.5450268 1.030161-1.3011765 1.030161-2.2564706 0-1.2787166-1.217327-2.3612834-3.650482-3.2716578-.831016-.2904812-1.464385-.542032-1.903101-.7456684-2.500535-1.0301604-4.255401-2.0857754-5.252621-3.153369-.994224-1.0765775-1.491336-2.3807487-1.491336-3.9035294 0-2.0902674.813048-3.7897326 2.458609-5.0939037 1.64107-1.2891979 3.815187-1.9555081 6.516364-1.9555081 1.813262 0 3.361497.3413904 4.656684 1.0106952 1.289198.6648129 2.235508 1.611123 2.832941 2.8524064l-3.810695 2.6113369c-.281497-.7366845-.768128-1.3296256-1.465882-1.7653476-.709733-.4327272-1.519786-.6558288-2.443636-.6558288-1.022674 0-1.83722.2425668-2.461605.7291978-.615401.4821391-.922353 1.1379679-.922353 1.9450268 0 1.2158288 1.380535 2.3343315 4.152086 3.3345454.866952.3099465 1.542246.573476 2.02738.775615 2.153155.8474866 3.705882 1.822246 4.640214 2.9033155.925347 1.0765775 1.397005 2.4181818 1.397005 4.0322995 0 2.3373262-.845989 4.1745454-2.548449 5.5026738-1.700963 1.3206417-4.035294 1.9884492-7.019466 1.9884492-2.296898 0-4.198502-.4282353-5.713796-1.2847059-1.530268-.8609626-2.713155-2.1681284-3.572621-3.9304813z"/><path d="m217.456678 38.3105882v-38.3105882h5.357433v24.5860963l9.816471-9.7101605h6.624171l-10.628021 10.3270589 11.637219 13.1075935h-6.922139l-10.527701-12.0909091v12.0909091z"/><path d="m192.038072 18.6102674c.576471-1.546738 1.33861-2.6906952 2.28492-3.437861.944813-.7381818 2.123208-1.111016 3.523208-1.111016.754653 0 1.503316.0853476 2.237006.2680214.73369.1811764 1.456898.4551871 2.160642.7980748l-1.928557 4.5473797c-.465668-.3413904-.96278-.5839572-1.495829-.7262032-.530053-.1662032-1.130481-.2425668-1.78631-.2425668-1.778823 0-3.062032.7142246-3.836149 2.1501604-.77861 1.4179679-1.155936 3.8166845-1.155936 7.1736898v10.2851337h-5.369412v-23.4885561h5.366417z"/><path d="m168.935827 27.3831016h-18.740535c.131765 2.1845989.783101 3.8990374 1.958503 5.1358289 1.166417 1.2308021 2.720641 1.8402139 4.67016 1.8402139 1.723422 0 3.171337-.362353 4.32877-1.0825669 1.154438-.7351871 2.154652-1.8986096 3.015615-3.5217112l4.523422 2.5274866c-1.319144 2.3478075-2.952727 4.1161498-4.897754 5.2705883-1.951016 1.1484492-4.223957 1.7264171-6.841283 1.7264171-3.755294 0-6.749947-1.1514439-8.973476-3.4363636-2.220535-2.2909091-3.33754-5.3439573-3.33754-9.1741177 0-3.6714438 1.154438-6.6960428 3.44984-9.0543315 2.302887-2.3687701 5.257112-3.5471658 8.867165-3.5471658 3.773262 0 6.709519 1.0780748 8.826738 3.2387166 2.103744 2.1546524 3.160856 5.1807486 3.160856 9.0722994v1.0091979h-.008984v-.004492zm-5.565562-3.6130481c-.21861-1.684492-.854973-2.9632086-1.930053-3.8361498-1.070589-.8864171-2.536471-1.3281283-4.399145-1.3281283-1.762353 0-3.178823.4207487-4.246417 1.2802139-1.072085.8579679-1.825241 2.1531551-2.253476 3.8780749z"/></g><g transform="translate(109.304813 13.564278)"><path d="m3.1005582 5.60748335c.38923614.03173699.78287569.04791772 1.18029741.04791772 4.26449505 0 8.09502039-1.86589557 10.72085219-4.82438503h-11.04577197c-1.64855615.00299466-2.98117647 1.09754011-2.98117647 2.43914439 0 1.10105395.89558311 2.03607283 2.12579884 2.33732292z" fill="#e3a427" transform="translate(5.989305 23.957219)"/><path d="m.88200868 5.64980969c.13427764.0037194.2690173.00559138.40419453.00559138 4.26305599 0 8.09243516-1.86463649 10.71819349-4.82139037h-5.84739135c-1.37539671 2.0329393-3.18578696 3.69736248-5.27499667 4.81579899z" fill="#f7ba2c" transform="translate(8.983957 23.957219)"/><path d="m15.9088624 5.68834225c1.0455481-1.44846093 1.8272802-3.09965025 2.274645-4.88278075h-14.23206355c-1.64855615 0-2.97668449 1.09005347-2.97668449 2.4286631 0 1.35657754 1.32812834 2.45411765 2.97518716 2.45411765z" fill="#f7ba2c" transform="translate(5.989305 17.967914)"/><path d="m6.92490515 5.68834225c1.04554817-1.44846093 1.82728028-3.09965025 2.27464507-4.88278075h-6.53430958c-.35636363 1.75336898-.9717647 3.3944385-1.79978609 4.88278075z" fill="#fcc64a" transform="translate(14.973262 17.967914)"/><path d="m12.4174082 5.73625668c.1357999-.79188357.206549-1.60583932.206549-2.43614973 0-.83248163-.0709852-1.64843814-.2072286-2.44213904h-8.26314571c-1.64406417 0-2.97518717 1.09604279-2.97518717 2.44213904 0 1.34160428 1.33262032 2.43614973 2.97368984 2.43614973z" fill="#fcc64a" transform="translate(11.97861 11.97861)"/><path d="m7.92542962 5.73625668c.13579984-.79188357.20654899-1.60583932.20654899-2.43614973 0-.83248163-.07098519-1.64843814-.20722858-2.44213904h-6.56368051c.10631016.78759359.16320855 1.59016043.16320855 2.41967915 0 .83700535-.05989304 1.66053476-.17219251 2.45860962z" fill="#ffda61" transform="translate(16.470588 11.97861)"/><path d="m18.1830681 5.79016043c-.4469433-1.78160939-1.2272746-3.43113617-2.2707452-4.87828877h-11.96087905c-1.64855615 0-2.97668449 1.09604278-2.97668449 2.43614973 0 1.35657754 1.32812834 2.44213904 2.97518716 2.44213904z" fill="#f7ba2c" transform="translate(5.989305 5.989305)"/><path d="m9.19911085 5.79016043c-.44694323-1.78160939-1.22727458-3.43113617-2.27074521-4.87828877h-6.03895387c.82053475 1.48684492 1.43144384 3.12342246 1.77882352 4.87828877z" fill="#fcc64a" transform="translate(14.973262 5.989305)"/><path d="m15.0021515 5.76470588c-2.6258439-2.95914901-6.45656062-4.82438502-10.72129589-4.82438502-.39453895 0-.78535042.01593941-1.17182655.04720891-1.23497656.29831776-2.1342697 1.23277408-2.1342697 2.34102638 0 1.35208556 1.33262032 2.43614973 2.97967914 2.43614973z" fill="#e3a427" transform="translate(5.989305)"/><path d="m12.0101557 5.76770053c-2.62591644-2.9608852-6.45777878-4.82737967-10.72395249-4.82737967-.11526997 0-.23022176.00136058-.34484021.00406655 2.07692629 1.11974078 3.87463886 2.78113766 5.23510759 4.82331312z" fill="#f7ba2c" transform="translate(8.983957)"/><path d="m0 1.01069519h5.36042769v35.02325821h-5.36042769z" fill="#facf45"/></g><path d="m77.7471671 49.4536898h-5.5116577l6.4265241-13.0521925-8.6021391-21.4057754h5.9324064s5.2975401 15.9405348 5.4113369 16.735615c.2171123-.8265241 7.4387166-16.735615 7.4387166-16.735615h5.8141177z" fill="#40a848"/><path d="m58.7221393 38.4258824h-5.3589305v-3.0350803c-.9552941 1.3475936-2.0752941 2.3537968-3.3480214 3.020107-1.2787166.6558289-2.7431016.9792513-4.3886631.9792513-3.3105882 0-5.9189305-1.1274866-7.8265241-3.3974331-1.9031016-2.2624599-2.8524064-5.3604278-2.8524064-9.3058824 0-3.7373262.9687701-6.7604278 2.9137968-9.0603208 1.9450267-2.3013904 4.488984-3.4453476 7.6168984-3.4453476 1.9075936 0 3.5426738.3982887 4.902246 1.1978609 1.3595722.7965776 2.3493048 1.9555081 2.9796791 3.446845v-3.8331551h5.3589305zm-5.2136899-11.7914439c0-2.4166845-.5629946-4.3018182-1.6919786-5.6539037-1.1349732-1.3535829-2.7116577-2.0273797-4.7345454-2.0273797-2.0273797 0-3.6190375.702246-4.7824599 2.0902674-1.1619252 1.391016-1.7443851 3.3255615-1.7443851 5.797647 0 2.4795722.56 4.4036364 1.6859893 5.7572193 1.1185027 1.3460962 2.6996792 2.0273796 4.7405348 2.0273796 1.9270588 0 3.497754-.7351871 4.7105882-2.2070588 1.2128343-1.468877 1.8162567-3.3959358 1.8162567-5.7841711z" fill="#40a848"/><g transform="translate(0 13.564278)"><path d="m3.1005582 5.60748335c.38923614.03173699.78287569.04791772 1.18029741.04791772 4.26449505 0 8.09502039-1.86589557 10.72085219-4.82438503h-11.04577197c-1.64855615.00299466-2.98117647 1.09754011-2.98117647 2.43914439 0 1.10105395.89558311 2.03607283 2.12579884 2.33732292z" fill="#62b446" transform="translate(5.989305 23.957219)"/><path d="m.88200868 5.64980969c.13427764.0037194.2690173.00559138.40419453.00559138 4.26305599 0 8.09243516-1.86463649 10.71819349-4.82139037h-5.84739135c-1.37539671 2.0329393-3.18578696 3.69736248-5.27499667 4.81579899z" fill="#87be40" transform="translate(8.983957 23.957219)"/><path d="m15.9088624 5.68834225c1.0455481-1.44846093 1.8272802-3.09965025 2.274645-4.88278075h-14.23206355c-1.64855615 0-2.97668449 1.09005347-2.97668449 2.4286631 0 1.35657754 1.32812834 2.45411765 2.97518716 2.45411765z" fill="#8ec240" transform="translate(5.989305 17.967914)"/><path d="m6.92490515 5.68834225c1.04554817-1.44846093 1.82728028-3.09965025 2.27464507-4.88278075h-6.53430958c-.35636363 1.75336898-.9717647 3.3944385-1.79978609 4.88278075z" fill="#a5cc4e" transform="translate(14.973262 17.967914)"/><path d="m12.4174082 5.73625668c.1357999-.79188357.206549-1.60583932.206549-2.43614973 0-.83248163-.0709852-1.64843814-.2072286-2.44213904h-8.26314571c-1.64406417 0-2.97518717 1.09604279-2.97518717 2.44213904 0 1.34160428 1.33262032 2.43614973 2.97368984 2.43614973z" fill="#a1cb51" transform="translate(11.97861 11.97861)"/><path d="m7.92542962 5.73625668c.13579984-.79188357.20654899-1.60583932.20654899-2.43614973 0-.83248163-.07098519-1.64843814-.20722858-2.44213904h-6.56368051c.10631016.78759359.16320855 1.59016043.16320855 2.41967915 0 .83700535-.05989304 1.66053476-.17219251 2.45860962z" fill="#bcd758" transform="translate(16.470588 11.97861)"/><path d="m18.1830681 5.79016043c-.4469433-1.78160939-1.2272746-3.43113617-2.2707452-4.87828877h-11.96087905c-1.64855615 0-2.97668449 1.09604278-2.97668449 2.43614973 0 1.35657754 1.32812834 2.44213904 2.97518716 2.44213904z" fill="#8ec240" transform="translate(5.989305 5.989305)"/><path d="m9.19911085 5.79016043c-.44694323-1.78160939-1.22727458-3.43113617-2.27074521-4.87828877h-6.03895387c.82053475 1.48684492 1.43144384 3.12342246 1.77882352 4.87828877z" fill="#a5cc4e" transform="translate(14.973262 5.989305)"/><path d="m15.0021515 5.76470588c-2.6258439-2.95914901-6.45656062-4.82438502-10.72129589-4.82438502-.39453895 0-.78535042.01593941-1.17182655.04720891-1.23497656.29831776-2.1342697 1.23277408-2.1342697 2.34102638 0 1.35208556 1.33262032 2.43614973 2.97967914 2.43614973z" fill="#62b446" transform="translate(5.989305)"/><path d="m12.0101557 5.76770053c-2.62591644-2.9608852-6.45777878-4.82737967-10.72395249-4.82737967-.11526997 0-.23022176.00136058-.34484021.00406655 2.07692629 1.11974078 3.87463886 2.78113766 5.23510759 4.82331312z" fill="#87be40" transform="translate(8.983957)"/><path d="m0 1.01069519h5.36042769v35.02325821h-5.36042769z" fill="#40a848"/></g></g></svg>